<svg xmlns="http://www.w3.org/2000/svg" viewBox="0 0 30.91 32"><defs><style>.cls-1{fill:#6a6a6a;}</style></defs><g id="Layer_2" data-name="Layer 2"><g id="Layer_1-2" data-name="Layer 1"><path class="cls-1" d="M27.17,17.92c-1-.74-1.18-2.88-1.33-5.15,0-.21,0-.57-.05-1v-.13c0-.69-.06-1.47-.09-1.81a13.42,13.42,0,0,0-.45-2.72l-.09-.35c0-.16-.08-.3-.15-.51s-.15-.4-.22-.57-.19-.44-.32-.69l-.05-.09c-.16-.3-.31-.55-.45-.76a8.84,8.84,0,0,0-1.35-1.55l-.17-.15a9,9,0,0,0-1.32-1l-.18-.11c-.19-.11-.4-.22-.66-.34L19.77.83A11.78,11.78,0,0,0,17.46.18L16.64.07l-.25,0-.94,0-.93,0-.26,0-.81.11a11.59,11.59,0,0,0-2.31.65l-.51.23A6.86,6.86,0,0,0,10,1.4l-.18.11a9,9,0,0,0-1.32,1l-.16.15A8.84,8.84,0,0,0,7,4.18q-.21.31-.45.75L6.44,5c-.11.23-.22.45-.31.68s-.15.37-.22.57a3.59,3.59,0,0,0-.15.5l-.09.36a12.78,12.78,0,0,0-.45,2.71c0,.35-.07,1.13-.1,1.82v.05c0,.43,0,.82,0,1-.15,2.27-.3,4.41-1.33,5.15a9.22,9.22,0,0,0-3.72,8C.1,26.81.82,27,1.69,27H9.27a6.21,6.21,0,0,0,6.18,5,6.22,6.22,0,0,0,6.19-5h7.58c.87,0,1.58-.22,1.67-1.12A9.22,9.22,0,0,0,27.17,17.92ZM15.45,30.26A4.5,4.5,0,0,1,11.06,27h8.79A4.5,4.5,0,0,1,15.45,30.26Zm13.66-5H1.79a7.62,7.62,0,0,1,3-5.94C6.5,18,6.67,15.55,6.86,12.82c0-.25,0-.64,0-1.1v-.15C6.94,11,7,10.33,7,10a11.42,11.42,0,0,1,.39-2.35l0-.13.06-.24,0-.08c0-.07,0-.13,0-.19.08-.23.14-.39.21-.55s.16-.37.25-.55.26-.47.39-.66A6.94,6.94,0,0,1,9.49,4L9.57,4a7.59,7.59,0,0,1,1-.79L10.83,3c.19-.11.39-.21.54-.28l.42-.18a9.11,9.11,0,0,1,2-.56l.62-.08.3,0,.78,0h0l.77,0,.31,0,.62.08a9.11,9.11,0,0,1,1.95.56,3.79,3.79,0,0,1,.42.18l.53.27.21.14A7.11,7.11,0,0,1,21.34,4l.08.07A7.41,7.41,0,0,1,22.5,5.26c.12.18.23.37.38.65a5.65,5.65,0,0,1,.25.55c.08.17.14.33.22.55,0,.06,0,.12,0,.19v0a2.29,2.29,0,0,0,.07.28l0,.13A10.48,10.48,0,0,1,23.9,10c0,.31.06.92.09,1.5v.25c0,.47,0,.9.05,1.15.18,2.72.36,5.13,2.11,6.37A7.58,7.58,0,0,1,29.11,25.22Z"/></g></g></svg>