<svg xmlns="http://www.w3.org/2000/svg" viewBox="0 0 16 16"><defs><style>.cls-1{fill:#fff;}</style></defs><g id="Layer_2" data-name="Layer 2"><g id="Layer_1-2" data-name="Layer 1"><path class="cls-1" d="M7.89,15.13a2.24,2.24,0,0,0,2.19-1.61H5.69A2.25,2.25,0,0,0,7.89,15.13Z"/><path class="cls-1" d="M11.86,3.77l0,0,0-.11v0l0-.1-.1-.27L11.6,3c-.07-.13-.13-.23-.19-.32A3.32,3.32,0,0,0,10.87,2l0,0a3.79,3.79,0,0,0-.53-.39l-.1-.07-.27-.14-.21-.09a4.58,4.58,0,0,0-1-.27L8.43,1,8.28,1l-.39,0h0L7.49,1,7.34,1,7,1a4.58,4.58,0,0,0-1,.27l-.21.09-.27.14-.1.07A3.79,3.79,0,0,0,4.94,2l0,0a3.25,3.25,0,0,0-.53.62,1.91,1.91,0,0,0-.2.33q-.06.12-.12.27a2.49,2.49,0,0,0-.11.27l0,.1v0l0,.12v.06A5,5,0,0,0,3.66,5c0,.16,0,.48,0,.79v.07c0,.23,0,.43,0,.55C3.5,7.78,3.41,9,2.53,9.64a3.78,3.78,0,0,0-1.47,3h.72l0,0Z"/><path class="cls-1" d="M12.16,5.88V5.75c0-.29,0-.59,0-.74a2.58,2.58,0,0,0,0-.29l-9,7.86,0,0H14.72a3.84,3.84,0,0,0-1.48-3c-.88-.62-1-1.82-1.06-3.19C12.17,6.33,12.17,6.11,12.16,5.88Z"/><path d="M15.85,1.41a.43.43,0,0,0,0-.61.45.45,0,0,0-.13-.11l-.09,0-.07,0h0a.46.46,0,0,0-.2,0l-.08.05L12.64,3.08h0a1.43,1.43,0,0,0-.08-.22l-.16-.34,0,0c-.08-.15-.15-.27-.22-.38a4.27,4.27,0,0,0-.68-.77l-.08-.08a5.39,5.39,0,0,0-.66-.49L10.63.7,10.3.53,10,.42A5.44,5.44,0,0,0,8.89.09a3.53,3.53,0,0,0-.41,0L8.35,0,7.88,0,7.42,0,7.29,0a3.53,3.53,0,0,0-.41,0A5.44,5.44,0,0,0,5.73.42L5.47.53A2.5,2.5,0,0,0,5.14.7L5.05.76a4.51,4.51,0,0,0-.66.48l-.08.08a4.27,4.27,0,0,0-.68.77,3.9,3.9,0,0,0-.22.38l0,0c-.06.11-.11.23-.16.34s-.07.19-.11.29A2,2,0,0,0,3,3.4l0,.17a6.86,6.86,0,0,0-.22,1.36c0,.17,0,.57,0,.91v0c0,.21,0,.4,0,.52C2.62,7.52,2.55,8.59,2,9A4.61,4.61,0,0,0,.17,13c0,.36.28.5.6.54L.15,14A.43.43,0,0,0,0,14.5a.38.38,0,0,0,.09.15l0,0,.12.09H.31l.09,0h0l.1,0h0a.37.37,0,0,0,.15-.08h0l1.34-1.17H4.79A3.12,3.12,0,0,0,7.89,16,3.12,3.12,0,0,0,11,13.52h3.79c.43,0,.79-.12.83-.56a4.61,4.61,0,0,0-1.86-4c-.51-.37-.59-1.44-.66-2.57,0-.11,0-.29,0-.49V5.84c0-.34,0-.74-.05-.91A5.83,5.83,0,0,0,12.88,4h0ZM1.06,12.61a3.78,3.78,0,0,1,1.47-3c.88-.62,1-1.86,1.06-3.23,0-.12,0-.32,0-.55V5.79c0-.31,0-.63,0-.79a5,5,0,0,1,.2-1.18V3.76l0-.12v0l0-.1a2.49,2.49,0,0,1,.11-.27q.06-.15.12-.27a1.91,1.91,0,0,1,.2-.33A3.25,3.25,0,0,1,4.9,2l0,0a3.79,3.79,0,0,1,.53-.39l.1-.07.27-.14.21-.09A4.58,4.58,0,0,1,7,1l.31,0,.15,0,.39,0h0l.39,0,.15,0,.31,0a4.58,4.58,0,0,1,1,.27l.21.09.27.14.1.07a3.79,3.79,0,0,1,.53.39l0,0a3.32,3.32,0,0,1,.54.62c.06.09.12.19.19.32l.13.28.1.27,0,.1v0l0,.11,0,0-10,8.81,0,0Zm6.83,2.52a2.25,2.25,0,0,1-2.2-1.61h4.39A2.24,2.24,0,0,1,7.89,15.13Zm5.35-5.49a3.84,3.84,0,0,1,1.48,3H3.09l0,0,9-7.86h0a2.58,2.58,0,0,1,0,.29c0,.15,0,.45,0,.74v.13c0,.23,0,.45,0,.57C12.28,7.82,12.36,9,13.24,9.64Z"/></g></g></svg>