<svg xmlns="http://www.w3.org/2000/svg" viewBox="0 0 7.65 15.94"><g id="Layer_2" data-name="Layer 2"><g id="Layer_1-2" data-name="Layer 1"><path d="M7.23,0H.42A.42.42,0,0,0,0,.42v15.1a.42.42,0,0,0,.42.42H7.23a.42.42,0,0,0,.42-.42V.42A.42.42,0,0,0,7.23,0ZM6.82,15.1h-6V.84h6Z"/><path d="M2.18,4.06H5.47a.41.41,0,0,0,.42-.41V2.07a.42.42,0,0,0-.42-.42H2.18a.42.42,0,0,0-.42.42V3.65A.41.41,0,0,0,2.18,4.06ZM2.6,2.49H5.06v.74H2.6Z"/><path d="M2.14,6H5.51a.42.42,0,1,0,0-.84H2.14a.42.42,0,0,0,0,.84Z"/><path d="M2.14,8.07H5.51a.42.42,0,1,0,0-.83H2.14a.42.42,0,1,0,0,.83Z"/><path d="M3.83,9.64a.48.48,0,0,0-.48.47.49.49,0,0,0,.48.48.48.48,0,0,0,.47-.48A.47.47,0,0,0,3.83,9.64Z"/></g></g></svg>