<svg xmlns="http://www.w3.org/2000/svg" viewBox="0 0 31.5 31.5"><defs><style>.cls-1{fill:#6a6a6a;}</style></defs><g id="Layer_2" data-name="Layer 2"><g id="Layer_1-2" data-name="Layer 1"><path class="cls-1" d="M30.75,15.23H16a.76.76,0,0,0-.75.75v5h-8V13h5a.76.76,0,0,0,.75-.75V.75A.76.76,0,0,0,12.22,0H.75A.76.76,0,0,0,0,.75V12.22A.76.76,0,0,0,.75,13h5v8.75a.76.76,0,0,0,.75.75h8.75v8.28a.76.76,0,0,0,.75.75H30.75a.76.76,0,0,0,.75-.75V16A.76.76,0,0,0,30.75,15.23ZM1.5,1.5h10v10H1.5ZM30,30H16.73V16.73H30Z"/></g></g></svg>