<svg width="30" height="30" viewBox="0 0 30 30" fill="none" xmlns="http://www.w3.org/2000/svg">
<path d="M29.28 28.22L15.81 14.75L29 1.59C29.0708 1.52105 29.127 1.43864 29.1654 1.34761C29.2038 1.25659 29.2236 1.15879 29.2236 1.06C29.2236 0.961206 29.2038 0.863413 29.1654 0.772387C29.127 0.681361 29.0708 0.598945 29 0.529999C28.8594 0.389549 28.6688 0.310659 28.47 0.310659C28.2713 0.310659 28.0807 0.389549 27.94 0.529999L14.75 13.69L1.28003 0.219999C1.13785 0.0875191 0.949808 0.0153959 0.755507 0.0188241C0.561206 0.0222523 0.375821 0.100964 0.238408 0.238377C0.100995 0.37579 0.0222829 0.561175 0.0188546 0.755477C0.0154264 0.949778 0.0875496 1.13782 0.22003 1.28L13.69 14.75L0.39003 28.05C0.251334 28.1936 0.173812 28.3854 0.173812 28.585C0.173812 28.7846 0.251334 28.9764 0.39003 29.12C0.533099 29.2558 0.722805 29.3314 0.92003 29.3314C1.11725 29.3314 1.30696 29.2558 1.45003 29.12L14.75 15.81L28.22 29.28C28.3607 29.4205 28.5513 29.4993 28.75 29.4993C28.9488 29.4993 29.1394 29.4205 29.28 29.28C29.4205 29.1394 29.4994 28.9488 29.4994 28.75C29.4994 28.5512 29.4205 28.3606 29.28 28.22Z" fill="white"/>
</svg>
