<svg xmlns="http://www.w3.org/2000/svg" viewBox="0 0 16 15.76"><g id="Layer_2" data-name="Layer 2"><g id="Layer_1-2" data-name="Layer 1"><path d="M.83,11.25A4.25,4.25,0,0,1,5,7.3a3.81,3.81,0,0,1,1.22.21,1.28,1.28,0,0,1,.44-.32l.06,0,.1,0,.15-.07H7V7a4.5,4.5,0,0,0-2-.48A5.07,5.07,0,0,0,0,11.66a.41.41,0,0,0,.41.41H5.75v-.82Z"/><path d="M7.51,8.26a3.06,3.06,0,0,0-.29-.21h0l-.06,0-.08,0a.41.41,0,0,0-.29.38v2.77h.12v.82H6.77v3.26a.43.43,0,0,0,.43.43h8.37a.43.43,0,0,0,.43-.43V8.48a.43.43,0,0,0-.43-.43h-.79V5.9a1.37,1.37,0,0,0-.47-1.06,1.41,1.41,0,0,0-.93-.33H9.25a1.45,1.45,0,0,0-1.2,1A1.53,1.53,0,0,0,8,6L8,7.64v.41h0l-.19.08A.92.92,0,0,0,7.51,8.26ZM8.83,6a.69.69,0,0,1,0-.22.59.59,0,0,1,.51-.38h4a.48.48,0,0,1,.54.52V8.05H8.82Zm-.2,3h6.52v6H7.62v-6h1Z"/><rect x="10.89" y="10.8" width="0.99" height="2.37"/><path d="M7.51,8.26a.92.92,0,0,1,.21-.13l.19-.08H7.22A3.06,3.06,0,0,1,7.51,8.26Z"/><polygon points="6.89 11.26 6.77 11.26 6.77 11.55 6.77 12.07 6.89 12.07 6.89 11.26"/><path d="M4.85,5.69A2.85,2.85,0,1,0,2,2.84,2.85,2.85,0,0,0,4.85,5.69Zm0-4.87a2,2,0,1,1-2,2A2,2,0,0,1,4.85.82Z"/></g></g></svg>