<svg xmlns="http://www.w3.org/2000/svg" viewBox="0 0 16 14.86"><g id="Layer_2" data-name="Layer 2"><g id="Layer_1-2" data-name="Layer 1"><path d="M.74.74H10.8v2h.74V.37A.37.37,0,0,0,11.17,0H.37A.37.37,0,0,0,0,.37V8.05a.36.36,0,0,0,.37.37h5v1.73H3.74a.37.37,0,1,0,0,.73H5.88V7.68H.74Z"/><path d="M15.58,7.25h-.79V5.12a1.34,1.34,0,0,0-.46-1,1.37,1.37,0,0,0-.92-.33H9.33a1.44,1.44,0,0,0-1.18.94,1.42,1.42,0,0,0-.08.48V7.25H7.25l-.08,0a.41.41,0,0,0-.29.38h0v6.75a.43.43,0,0,0,.43.43h8.27a.42.42,0,0,0,.42-.43V7.67A.42.42,0,0,0,15.58,7.25ZM8.92,5.18A.58.58,0,0,1,9,5c.05-.15.15-.31.5-.39h4a.6.6,0,0,1,.38.13.53.53,0,0,1,.16.4V7.25h-5ZM15.16,14H7.73V8.09h7.43Z"/><rect x="10.95" y="9.96" width="0.98" height="2.34"/></g></g></svg>