<svg xmlns="http://www.w3.org/2000/svg" viewBox="0 0 13.74 16"><g id="Layer_2" data-name="Layer 2"><g id="Layer_1-2" data-name="Layer 1"><path d="M1.9,16a1.66,1.66,0,0,1-1-.34l-.22-.17A1.64,1.64,0,0,1,0,14.38a1.63,1.63,0,0,1,.32-1.24L4.2,8A5.19,5.19,0,0,1,10.73.48a.4.4,0,0,1,.21.25.38.38,0,0,1-.07.33L8.31,4.45l1.07.81,2.55-3.38a.38.38,0,0,1,.3-.15.41.41,0,0,1,.31.14,5.18,5.18,0,0,1-5.41,8.3L3.24,15.33A1.67,1.67,0,0,1,1.9,16ZM8.56.77A4.41,4.41,0,0,0,5,7.8a.39.39,0,0,1,0,.46L1,13.61a.93.93,0,0,0-.17.67.91.91,0,0,0,.35.59l.23.18a.91.91,0,0,0,1.26-.18L6.68,9.49a.39.39,0,0,1,.44-.13,4.42,4.42,0,0,0,5.12-6.6L9.77,6a.38.38,0,0,1-.54.08L7.54,4.84a.39.39,0,0,1-.15-.26.4.4,0,0,1,.07-.28L10,1A4.4,4.4,0,0,0,8.56.77Z"/></g></g></svg>