<svg xmlns="http://www.w3.org/2000/svg" viewBox="0 0 11.54 16"><g id="Layer_2" data-name="Layer 2"><g id="Layer_1-2" data-name="Layer 1"><path d="M11.08,8.56V8.43c0-.11,0-.28,0-.48s0-.56.07-.8l.1-1c.12-1.17.23-2.27.24-2.69,0-.65-.26-1.75-1.1-1.93a1.56,1.56,0,0,0-1.23.2,1.61,1.61,0,0,0-.59.79c0-.21,0-.39,0-.52A1.77,1.77,0,0,0,7.44.05a1.52,1.52,0,0,0-.91,0A1.94,1.94,0,0,0,5.45,2c0,.15,0,.62,0,1.24a1.66,1.66,0,0,0-.06-.31A1.48,1.48,0,0,0,3.81,1.76,1.52,1.52,0,0,0,2.37,3a2.84,2.84,0,0,0,0,.82c0,.14.38,2.49.63,4.05l0-.08a1.56,1.56,0,0,0-2-.6A1.61,1.61,0,0,0,.15,9.28c.14.33,1.77,3.45,2.26,4.37l.08.16h0a4.83,4.83,0,0,0,4,2.2,5.16,5.16,0,0,0,4.91-5.38,5.77,5.77,0,0,0-.36-2Zm-.72.28c0,.08.14.26.19.41a3.7,3.7,0,0,1,.19,1.37,4.46,4.46,0,0,1-4.2,4.66,4.11,4.11,0,0,1-3.5-2C2.47,12.23.92,9.27.8,9A.9.9,0,0,1,1.22,7.8a.84.84,0,0,1,1.11.36c0,.07.62,1,1,1.65a.36.36,0,0,0,.43.16A.35.35,0,0,0,4,9.57L3.9,9.08c-.08-.41-.83-5.35-.84-5.38a2.08,2.08,0,0,1,0-.56.81.81,0,0,1,.78-.67.76.76,0,0,1,.85.58c.08.34.45,3.18.61,4.39.05.35.08.59.1.68a.86.86,0,0,0,.08.22.34.34,0,0,0,.34.21.36.36,0,0,0,.32-.23c0-.05,0-.1,0-.12s0,0,0-.07,0-1,0-2.36,0-3.48,0-3.8A1.24,1.24,0,0,1,6.83.74a.92.92,0,0,1,.37,0c.33.11.75.36.72,1.24S7.86,5.33,7.84,7c0,.71,0,1.25,0,1.4a.36.36,0,0,0,.7.1c0-.12.13-.94.39-3.19.11-1,.22-2,.24-2.08a1.34,1.34,0,0,1,.46-.93.82.82,0,0,1,.67-.09c.38.08.55.82.53,1.21S10.7,5,10.59,6.08l-.1,1c0,.24-.05.55-.07.81s0,.36,0,.47,0,.23,0,.32v.06A.31.31,0,0,0,10.36,8.84Z"/></g></g></svg>