<svg xmlns="http://www.w3.org/2000/svg" viewBox="0 0 31.78 27.17"><defs><style>.cls-1{fill:#737374;}</style></defs><g id="Layer_2" data-name="Layer 2"><g id="Layer_1-2" data-name="Layer 1"><path class="cls-1" d="M4.32,10.76C3.08,7.22,3.5,4.55,5.61,2.83A5.09,5.09,0,0,1,9.74,1.56c2.47.38,4.6,2.54,5.7,3.87l1,1.27a.55.55,0,0,0,.88,0l1-1.36c1.12-1.32,3.2-3.39,5.61-3.76a5,5,0,0,1,4.13,1.27c2.2,1.8,2.56,4.63,1.1,8.41h1.61c1.45-4.15.85-7.44-1.76-9.57A6.57,6.57,0,0,0,23.71.08C20.53.57,18,3.33,16.84,4.77,15.71,3.33,13.16.57,10,.08A6.57,6.57,0,0,0,4.66,1.67C2.15,3.72,1.5,6.84,2.74,10.76Z"/><path class="cls-1" d="M24.2,18.61l-7,6.8h0l-.06.09-.24.23L14,23a2.22,2.22,0,0,1-1.22-1.17L9.48,18.61l-.07-.08A2.25,2.25,0,0,1,7.47,17.3l-1-2H4.85a23.49,23.49,0,0,0,3.59,4.43l7.07,6.85a1.72,1.72,0,0,0,2.7-.06l7-6.79a23.63,23.63,0,0,0,3.28-4H26.7A22.24,22.24,0,0,1,24.2,18.61Z"/><path class="cls-1" d="M31,12.74H16.32a.74.74,0,0,0-.73.61l-.75,3.81-2.53-12a.79.79,0,0,0-.74-.6.76.76,0,0,0-.73.61L9.17,14l-.65-1.3a.76.76,0,0,0-.68-.41H.75a.75.75,0,0,0,0,1.5H7.38l1.44,2.87a.75.75,0,0,0,.77.41.75.75,0,0,0,.63-.61l1.4-7.3,2.51,11.95a.74.74,0,0,0,.74.59h0a.74.74,0,0,0,.73-.6l1.34-6.83H31a.75.75,0,0,0,0-1.5Z"/></g></g></svg>