<svg xmlns="http://www.w3.org/2000/svg" viewBox="0 0 16.31 32"><defs><style>.cls-1{fill:#6a6a6a;}</style></defs><g id="Layer_2" data-name="Layer 2"><g id="Layer_1-2" data-name="Layer 1"><path class="cls-1" d="M6.59,29.35a1.57,1.57,0,0,0,0,2.2,1.5,1.5,0,0,0,1.1.45,1.53,1.53,0,0,0,1.1-.45,1.44,1.44,0,0,0,.47-1.09,1.52,1.52,0,0,0-.47-1.11A1.55,1.55,0,0,0,6.59,29.35Z"/><path class="cls-1" d="M14.16,2.29A7.57,7.57,0,0,0,8.4,0a8.33,8.33,0,0,0-6,2.28A8.11,8.11,0,0,0,0,8.28a.36.36,0,0,0,.09.24.36.36,0,0,0,.24.09H1.52a.32.32,0,0,0,.33-.32A6.58,6.58,0,0,1,3.63,3.65,6.29,6.29,0,0,1,8.4,1.85a5.77,5.77,0,0,1,4.44,1.73,6.82,6.82,0,0,1,1.61,4.81,9.62,9.62,0,0,1-.35,2.81A7.73,7.73,0,0,1,13,13.45a21.56,21.56,0,0,1-2.74,2.93,11.78,11.78,0,0,0-2.78,3.54,10.77,10.77,0,0,0-.8,4.19.34.34,0,0,0,.33.33H8.2a.33.33,0,0,0,.33-.33,7.56,7.56,0,0,1,2.81-6.34,17.82,17.82,0,0,0,3.94-4.68,10.35,10.35,0,0,0,1-4.67A8.66,8.66,0,0,0,14.16,2.29Z"/></g></g></svg>