<svg xmlns="http://www.w3.org/2000/svg" viewBox="0 0 32 24.45"><defs><style>.cls-1{fill:#6a6a6a;}</style></defs><g id="Layer_2" data-name="Layer 2"><g id="Layer_1-2" data-name="Layer 1"><path class="cls-1" d="M3.77,3.15a.74.74,0,1,0,.73.73A.74.74,0,0,0,3.77,3.15Z"/><path class="cls-1" d="M32,4.14V1.83A1.85,1.85,0,0,0,30,0H1.82A1.75,1.75,0,0,0,0,1.84V22.49a1.78,1.78,0,0,0,1.94,2l28.69,0A1.33,1.33,0,0,0,32,23.05C32,18.16,32,8.56,32,4.14ZM1.71,1.73a.23.23,0,0,1,.13,0H30c.1,0,.23,0,.26.13V6.12H1.7V1.84A.5.5,0,0,1,1.71,1.73Zm.23,21H1.73a.89.89,0,0,1,0-.25V7.83H30.28c0,4.71,0,11.08,0,14.9Z"/></g></g></svg>