<svg xmlns="http://www.w3.org/2000/svg" viewBox="0 0 32 31.53"><defs><style>.cls-1{fill:#6a6a6a;}</style></defs><g id="Layer_2" data-name="Layer 2"><g id="Layer_1-2" data-name="Layer 1"><path class="cls-1" d="M31.44,14.24,17.42.55a2.11,2.11,0,0,0-2.84,0L.56,14.24a1.78,1.78,0,0,0-.4,2A2,2,0,0,0,2,17.42H3.91V29.28a2.31,2.31,0,0,0,2.37,2.25h7.43V20.28a.71.71,0,0,1,.73-.69h3.12a.71.71,0,0,1,.73.69V31.53h7.43a2.31,2.31,0,0,0,2.37-2.25V17.41H30a2,2,0,0,0,1.82-1.15A1.78,1.78,0,0,0,31.44,14.24Zm-1.19,1.39a.24.24,0,0,1-.23.15H27.61s-1.25-.29-1.25,1.21v12.3a.63.63,0,0,1-.64.61H20.13c0-.08,0-.15,0-.22V19.81A1.79,1.79,0,0,0,18.44,18H13.56a1.79,1.79,0,0,0-1.71,1.86v9.87c0,.07,0,.14,0,.22H6.28a.63.63,0,0,1-.64-.61V17c0-1.5-1.25-1.21-1.25-1.21H2a.24.24,0,0,1-.23-.15.22.22,0,0,1,.06-.25l14-13.69a.23.23,0,0,1,.36,0l14,13.69A.22.22,0,0,1,30.25,15.63Z"/></g></g></svg>