<svg xmlns="http://www.w3.org/2000/svg" viewBox="0 0 15.1 15.1"><g id="Layer_2" data-name="Layer 2"><g id="Layer_1-2" data-name="Layer 1"><path d="M14.32,3.64,11.46.78A2.67,2.67,0,0,0,9.57,0h-4A2.67,2.67,0,0,0,3.64.78L.78,3.64A2.67,2.67,0,0,0,0,5.53v4a2.67,2.67,0,0,0,.78,1.89l2.86,2.86a2.67,2.67,0,0,0,1.89.78h4a2.67,2.67,0,0,0,1.89-.78l2.86-2.86a2.67,2.67,0,0,0,.78-1.89v-4A2.67,2.67,0,0,0,14.32,3.64ZM9.8,11.26a.38.38,0,1,1,0,.75H5.3a.38.38,0,0,1,0-.75H7.18V3.84H5.3a.38.38,0,0,1,0-.75H9.8a.38.38,0,1,1,0,.75H7.93v7.42Z"/></g></g></svg>