<svg xmlns="http://www.w3.org/2000/svg" viewBox="0 0 27.48 32"><defs><style>.cls-1{fill:#6a6a6a;}</style></defs><g id="Layer_2" data-name="Layer 2"><g id="Layer_1-2" data-name="Layer 1"><path class="cls-1" d="M3.8,32a3.35,3.35,0,0,1-2-.67L1.33,31a3.35,3.35,0,0,1-.66-4.69L8.41,16A10.38,10.38,0,0,1,21.46,1a.79.79,0,0,1,.42.52.75.75,0,0,1-.13.65L16.63,8.91l2.14,1.61,5.09-6.75a.77.77,0,0,1,1.21,0,10.37,10.37,0,0,1-10.8,16.61L6.48,30.67A3.35,3.35,0,0,1,3.8,32ZM17.12,1.55A8.82,8.82,0,0,0,10,15.6a.75.75,0,0,1,0,.92L1.91,27.22a1.83,1.83,0,0,0,.35,2.53l.46.34a1.81,1.81,0,0,0,2.53-.35L13.36,19a.79.79,0,0,1,.87-.27A8.82,8.82,0,0,0,24.47,5.53l-4.93,6.54a.78.78,0,0,1-1.09.15L15.08,9.67a.77.77,0,0,1-.15-1.08L19.9,2A8.61,8.61,0,0,0,17.12,1.55Z"/></g></g></svg>