<svg xmlns="http://www.w3.org/2000/svg" viewBox="0 0 21.61 32"><defs><style>.cls-1{fill:#6a6a6a;}</style></defs><g id="Layer_2" data-name="Layer 2"><g id="Layer_1-2" data-name="Layer 1"><path class="cls-1" d="M21.43,14.53a2.75,2.75,0,0,0-2.75-2.75,2,2,0,0,0-.35,0,2.36,2.36,0,0,0-.54.12l-.28.11A2.76,2.76,0,0,0,16,10.3a2.72,2.72,0,0,0-1.14-.25,2.66,2.66,0,0,0-.94.17l-.13,0a2.64,2.64,0,0,0-.44.23,3.22,3.22,0,0,0-.2-.37,2.89,2.89,0,0,0-1-.84A2.64,2.64,0,0,0,11,9a2.82,2.82,0,0,0-1.48.47l0-6.72A2.8,2.8,0,0,0,6.71,0h0A2.8,2.8,0,0,0,3.91,2.8l0,8.75s0,.09,0,.13V12s0,.06,0,.09v1A2.8,2.8,0,0,0,0,15.65v5.16c0,.18,0,.37,0,.55a10.53,10.53,0,0,0,20.27,4.09,13.28,13.28,0,0,0,.65-2.1,51.55,51.55,0,0,0,.68-5.63A31.83,31.83,0,0,0,21.43,14.53Zm-1.5,3.09c0,.1-.15,2.26-.46,4.28-.06.39-.12.77-.19,1.13a14.85,14.85,0,0,1-.51,1.69.36.36,0,0,0,0,.09,8.85,8.85,0,0,1-17-3.45c0-.15,0-.31,0-.47V19.63a.77.77,0,0,1,0-.15v-4a1.12,1.12,0,0,1,1.63-1,1.09,1.09,0,0,1,.36.28,1,1,0,0,1,.25.47v.14h0a.51.51,0,0,1,0,.13V19a.83.83,0,0,0,.8.61.85.85,0,0,0,.84-.84v-7a1.49,1.49,0,0,0,0-.21l0-8.76A1.05,1.05,0,0,1,5.92,2a1.05,1.05,0,0,1,.78-.33h0A1.11,1.11,0,0,1,7.82,2.79l0,7.55a1.67,1.67,0,0,0,.44,1.11,1.14,1.14,0,0,0,.15.16,1.73,1.73,0,0,0,.91.39h.18L9.79,12a3.54,3.54,0,0,0,.23-.56,1.07,1.07,0,0,1,1-.67,1.17,1.17,0,0,1,1.07,1.12s0,.47,0,.47a.78.78,0,0,0,0,.22.86.86,0,0,0,.81.65H13a.87.87,0,0,0,.72-.38.3.3,0,0,1,0-.08,4.63,4.63,0,0,1,.34-.71,1.06,1.06,0,0,1,.73-.29,1.08,1.08,0,0,1,1,.75s.08,1.21.08,1.21a.83.83,0,0,0,0,.22.86.86,0,0,0,.81.64h.1a.82.82,0,0,0,.71-.37,2,2,0,0,1,.42-.5,1.07,1.07,0,0,1,1.72.86S19.93,17.59,19.93,17.62Z"/></g></g></svg>