<svg xmlns="http://www.w3.org/2000/svg" viewBox="0 0 16 16"><defs><style>.cls-1{fill:#fff;}</style></defs><g id="Layer_2" data-name="Layer 2"><g id="Layer_1-2" data-name="Layer 1"><path class="cls-1" d="M8,.84A7.16,7.16,0,1,0,15.16,8,7.17,7.17,0,0,0,8,.84Zm4.73,7.55H3.27a.39.39,0,0,1,0-.78h9.46a.39.39,0,1,1,0,.78Z"/><path d="M12.73,7.61H3.27a.39.39,0,0,0,0,.78h9.46a.39.39,0,1,0,0-.78Z"/><path d="M8,0a8,8,0,1,0,8,8A8,8,0,0,0,8,0ZM8,15.16A7.16,7.16,0,1,1,15.16,8,7.17,7.17,0,0,1,8,15.16Z"/></g></g></svg>