<svg xmlns="http://www.w3.org/2000/svg" viewBox="0 0 14.8 14.8"><g id="Layer_2" data-name="Layer 2"><g id="Layer_1-2" data-name="Layer 1"><path d="M7.31,3.84H6.12V7H7.31a1.5,1.5,0,0,0,1.37-1.6A1.5,1.5,0,0,0,7.31,3.84Z"/><path d="M14.06,3.59,11.21.75A2.54,2.54,0,0,0,9.41,0h-4a2.53,2.53,0,0,0-1.8.75L.75,3.59A2.54,2.54,0,0,0,0,5.39v4a2.53,2.53,0,0,0,.75,1.8l2.84,2.85a2.53,2.53,0,0,0,1.8.74h4a2.53,2.53,0,0,0,1.8-.74l2.85-2.85a2.53,2.53,0,0,0,.74-1.8v-4A2.53,2.53,0,0,0,14.06,3.59ZM7.31,7.77H6.12v3.56a.38.38,0,1,1-.75,0V3.47a.37.37,0,0,1,.38-.37H7.31A2.23,2.23,0,0,1,9.43,5.43,2.24,2.24,0,0,1,7.31,7.77Z"/></g></g></svg>