<svg xmlns="http://www.w3.org/2000/svg" viewBox="0 0 31.5 31.5"><defs><style>.cls-1{fill:#6a6a6a;}</style></defs><g id="Layer_2" data-name="Layer 2"><g id="Layer_1-2" data-name="Layer 1"><path class="cls-1" d="M23.35,15.42l-13-7.12a.35.35,0,0,0-.37,0,.37.37,0,0,0-.19.32V22.88a.37.37,0,0,0,.19.32.41.41,0,0,0,.19.05.41.41,0,0,0,.18-.05l13-7.12a.38.38,0,0,0,0-.66Z"/><path class="cls-1" d="M15.75,0A15.75,15.75,0,1,0,31.5,15.75,15.77,15.77,0,0,0,15.75,0Zm0,30A14.25,14.25,0,1,1,30,15.75,14.26,14.26,0,0,1,15.75,30Z"/></g></g></svg>