<svg xmlns="http://www.w3.org/2000/svg" viewBox="0 0 30 29.83"><defs><style>.cls-1{fill:#6a6a6a;}</style></defs><g id="Layer_2" data-name="Layer 2"><g id="Layer_1-2" data-name="Layer 1"><path class="cls-1" d="M24.58,26.77l0,0"/><path class="cls-1" d="M13.63,0A14.94,14.94,0,0,0,5.39,3.4l-.06.05-.45.39-.29.28-.2.19-.49.51-.08.09-.37.43c-.07.09-.14.19-.22.28s-.13.17-.2.26l-.3.41-.09.13a15,15,0,0,0,.75,18l0,0a6.4,6.4,0,0,0,.42.49l.22.23.28.3.06.06h0a16.39,16.39,0,0,0,1.92,1.63L1.8,26.94a.91.91,0,1,0-.09,1.81l8.09.39a1,1,0,0,0,.29,0,1,1,0,0,0,.45-.29.9.9,0,0,0,.18-.79l-.16-.68L9,21a.88.88,0,0,0-.24-.43.9.9,0,0,0-.85-.24.92.92,0,0,0-.67,1.1l1.21,4.94a13.61,13.61,0,0,1-2.13-1.51l0,0-.5-.47L5.48,24l-.21-.23-.11-.12A13.18,13.18,0,0,1,13.79,1.81L14,1.76a.9.9,0,0,0,.61-.94A.91.91,0,0,0,13.63,0Z"/><path class="cls-1" d="M26.61,5.43l0,0c-.13-.16-.27-.33-.42-.49l-.22-.23-.28-.3-.06-.06h0a15.4,15.4,0,0,0-1.92-1.62l4.53.22A.92.92,0,0,0,29.15,2a.91.91,0,0,0-.86-.95L20.2.69a1,1,0,0,0-.29.05.86.86,0,0,0-.45.28.91.91,0,0,0-.18.79l.16.68L21,8.85a.83.83,0,0,0,.24.43.88.88,0,0,0,.85.24.91.91,0,0,0,.67-1.09L21.55,3.49A13,13,0,0,1,23.68,5h0l.5.47.32.32.21.22.11.12A13.19,13.19,0,0,1,16.21,28a.65.65,0,0,0-.21,0,.91.91,0,0,0,.37,1.76,14.94,14.94,0,0,0,8.24-3.4l.05,0,.46-.4.3-.28c.06-.07.13-.13.19-.19s.33-.33.49-.51l.08-.09.37-.43c.07-.09.15-.18.22-.28L27,24l.3-.42.09-.13a15,15,0,0,0-.75-18Z"/></g></g></svg>