<svg xmlns="http://www.w3.org/2000/svg" viewBox="0 0 16 16"><defs><style>.cls-1{fill:#fff;}</style></defs><g id="Layer_2" data-name="Layer 2"><g id="Layer_1-2" data-name="Layer 1"><path class="cls-1" d="M1,15H15V1H1ZM4.33,4.33a.43.43,0,0,1,.63,0l3,3,3-3a.45.45,0,1,1,.63.63l-3,3,3,3a.45.45,0,0,1-.32.76.42.42,0,0,1-.31-.13l-3-3-3,3a.42.42,0,0,1-.31.13A.45.45,0,0,1,4.33,11l3-3-3-3A.43.43,0,0,1,4.33,4.33Z"/><path d="M0,0V16H16V0ZM15,15H1V1H15Z"/><path d="M7.37,8l-3,3a.45.45,0,0,0,.32.76A.42.42,0,0,0,5,11.67l3-3,3,3a.42.42,0,0,0,.31.13.45.45,0,0,0,.32-.76l-3-3,3-3A.45.45,0,1,0,11,4.33l-3,3-3-3A.45.45,0,1,0,4.33,5Z"/></g></g></svg>