<svg xmlns="http://www.w3.org/2000/svg" viewBox="0 0 32 32.03"><defs><style>.cls-1{fill:#6a6a6a;}</style></defs><g id="Layer_2" data-name="Layer 2"><g id="Layer_1-2" data-name="Layer 1"><path class="cls-1" d="M0,18.84V13.18a.68.68,0,0,1,.54-.66l3.93-.58A12.37,12.37,0,0,1,5,10.73L2.59,7.56a.67.67,0,0,1,.08-.85l4-4a.67.67,0,0,1,.85-.08L10.72,5a11.51,11.51,0,0,1,1.21-.51L12.5.54A.68.68,0,0,1,13.16,0h5.66a.68.68,0,0,1,.66.54l.58,3.94q.6.22,1.2.51l3.19-2.37a.67.67,0,0,1,.85.08l4,4a.67.67,0,0,1,.08.85L27,10.74a11.28,11.28,0,0,1,.5,1.2l3.95.58a.67.67,0,0,1,.54.65v5.67a.66.66,0,0,1-.54.65l-3.95.58a11.43,11.43,0,0,1-.5,1.21l2.35,3.21a.65.65,0,0,1-.08.84l-4,4a.67.67,0,0,1-.84.08L21.26,27a11.36,11.36,0,0,1-1.2.51l-.58,4a.68.68,0,0,1-.66.54H13.16a.68.68,0,0,1-.66-.54l-.58-4c-.4-.15-.81-.32-1.2-.51l-3.2,2.37a.68.68,0,0,1-.85-.08l-4-4a.67.67,0,0,1-.08-.85L5,21.28a12.37,12.37,0,0,1-.5-1.21L.54,19.5A.68.68,0,0,1,0,18.84Zm1.33-5.11v4.56L5,18.82a.66.66,0,0,1,.59.46,9.93,9.93,0,0,0,.74,1.77.67.67,0,0,1-.18.83L4,24.75,7.23,28l2.93-2.18a.64.64,0,0,1,.78-.14,11.11,11.11,0,0,0,1.88.77.67.67,0,0,1,.46.73.75.75,0,0,1,0,.16l.47,3.38h4.56l.47-3.38a.75.75,0,0,1,0-.16.67.67,0,0,1,.46-.73A10.38,10.38,0,0,0,21,25.65a.66.66,0,0,1,.84.18L24.72,28,28,24.78l-2.17-2.94a.66.66,0,0,1-.15-.79,10.58,10.58,0,0,0,.76-1.83.67.67,0,0,1,.74-.46l.07,0,3.47-.49V13.72l-3.56-.5a.64.64,0,0,1-.72-.43A10.92,10.92,0,0,0,25.63,11a.67.67,0,0,1,.18-.83L28,7.26,24.74,4,21.82,6.22a.64.64,0,0,1-.78.15,11.18,11.18,0,0,0-1.82-.76.69.69,0,0,1-.47-.74.09.09,0,0,0,0,0l-.49-3.49H13.71L13.2,4.9a.65.65,0,0,1-.43.71A9.77,9.77,0,0,0,11,6.37a.68.68,0,0,1-.84-.18L7.23,4,4,7.27l2.2,2.91a.64.64,0,0,1,.15.78,9.72,9.72,0,0,0-.74,1.78A.66.66,0,0,1,5,13.2Z"/><path class="cls-1" d="M11.34,20.68a6.59,6.59,0,1,1,9.32,0A6.59,6.59,0,0,1,11.34,20.68Zm8.21-8.21a5,5,0,1,0,0,7.09A5,5,0,0,0,19.55,12.47Z"/></g></g></svg>