<svg xmlns="http://www.w3.org/2000/svg" viewBox="0 0 31.5 31.5"><defs><style>.cls-1{fill:#6a6a6a;}</style></defs><g id="Layer_2" data-name="Layer 2"><g id="Layer_1-2" data-name="Layer 1"><path class="cls-1" d="M10.21,23.25A.41.41,0,0,1,10,23.2a.37.37,0,0,1-.19-.32V8.62A.37.37,0,0,1,10,8.3a.35.35,0,0,1,.37,0l13,7.12a.38.38,0,0,1,0,.66l-13,7.12A.41.41,0,0,1,10.21,23.25Z"/><path class="cls-1" d="M15.75,0A15.75,15.75,0,1,0,31.5,15.75,15.77,15.77,0,0,0,15.75,0Zm0,30A14.25,14.25,0,1,1,30,15.75,14.26,14.26,0,0,1,15.75,30Z"/><rect class="cls-1" x="7.75" y="7.75" width="16" height="16" rx="1.48"/></g></g></svg>