<svg xmlns="http://www.w3.org/2000/svg" viewBox="0 0 26.15 32"><defs><style>.cls-1{fill:#6a6a6a;}</style></defs><g id="Layer_2" data-name="Layer 2"><g id="Layer_1-2" data-name="Layer 1"><path class="cls-1" d="M25.33,32H.83A.83.83,0,0,1,0,31.17c0-7.55,5.87-13.7,13.08-13.7s13.07,6.15,13.07,13.7A.83.83,0,0,1,25.33,32ZM1.68,30.35H24.47c-.4-6.26-5.36-11.23-11.39-11.23S2.08,24.09,1.68,30.35Z"/><path class="cls-1" d="M12.81,1.65A5.75,5.75,0,1,1,7.07,7.4a5.76,5.76,0,0,1,5.74-5.75m0-1.65A7.4,7.4,0,1,0,20.2,7.4,7.4,7.4,0,0,0,12.81,0Z"/></g></g></svg>