<svg width="36" height="36" viewBox="0 0 36 36" fill="none" xmlns="http://www.w3.org/2000/svg">
<path d="M10.0808 26.805H25.7653V22.71C25.7535 21.4341 25.2395 20.2139 24.3344 19.313C23.4294 18.4122 22.2057 17.9028 20.9277 17.895H14.9184C13.6274 17.895 12.3893 18.4071 11.4765 19.3185C10.5636 20.2299 10.0508 21.4661 10.0508 22.755L10.0808 26.805Z" fill="white"/>
<path d="M17.9229 2.25C21.0221 2.25 24.0516 3.16756 26.6284 4.88666C29.2052 6.60575 31.2136 9.04917 32.3996 11.9079C33.5856 14.7667 33.8959 17.9124 33.2913 20.9472C32.6867 23.982 31.1943 26.7697 29.0029 28.9577C26.8115 31.1457 24.0195 32.6357 20.9799 33.2394C17.9403 33.8431 14.7897 33.5332 11.9265 32.3491C9.0633 31.165 6.61607 29.1597 4.8943 26.5869C3.17252 24.0141 2.25352 20.9893 2.25352 17.895C2.2575 13.7469 3.90966 9.76985 6.84738 6.8367C9.78511 3.90355 13.7684 2.25397 17.9229 2.25M17.9229 0C14.3781 0 10.9129 1.04952 7.9655 3.01585C5.01808 4.98218 2.72086 7.777 1.36431 11.0469C0.00776575 14.3168 -0.347168 17.9149 0.344392 21.3861C1.03595 24.8574 2.74295 28.046 5.24952 30.5487C7.75608 33.0513 10.9496 34.7557 14.4264 35.4462C17.9031 36.1366 21.5068 35.7823 24.7818 34.4278C28.0567 33.0734 30.8559 30.7797 32.8253 27.8369C34.7947 24.8941 35.8459 21.4343 35.8459 17.895C35.8459 15.545 35.3823 13.218 34.4816 11.0469C33.5809 8.87576 32.2607 6.90303 30.5964 5.24132C28.9321 3.57962 26.9563 2.26148 24.7818 1.36218C22.6072 0.462868 20.2766 0 17.9229 0V0Z" fill="white"/>
<path d="M17.9229 2.25C21.0221 2.25 24.0516 3.16756 26.6284 4.88666C29.2052 6.60575 31.2136 9.04917 32.3996 11.9079C33.5856 14.7667 33.8959 17.9124 33.2913 20.9472C32.6867 23.982 31.1943 26.7697 29.0029 28.9577C26.8115 31.1457 24.0195 32.6357 20.9799 33.2394C17.9403 33.8431 14.7897 33.5332 11.9265 32.3491C9.0633 31.165 6.61607 29.1597 4.8943 26.5869C3.17252 24.0141 2.25352 20.9893 2.25352 17.895C2.2575 13.7469 3.90966 9.76985 6.84738 6.8367C9.78511 3.90355 13.7684 2.25397 17.9229 2.25M17.9229 0C14.3781 0 10.9129 1.04952 7.9655 3.01585C5.01808 4.98218 2.72086 7.777 1.36431 11.0469C0.00776575 14.3168 -0.347168 17.9149 0.344392 21.3861C1.03595 24.8574 2.74295 28.046 5.24952 30.5487C7.75608 33.0513 10.9496 34.7557 14.4264 35.4462C17.9031 36.1366 21.5068 35.7823 24.7818 34.4278C28.0567 33.0734 30.8559 30.7797 32.8253 27.8369C34.7947 24.8941 35.8459 21.4343 35.8459 17.895C35.8459 15.545 35.3823 13.218 34.4816 11.0469C33.5809 8.87576 32.2607 6.90303 30.5964 5.24132C28.9321 3.57962 26.9563 2.26148 24.7818 1.36218C22.6072 0.462868 20.2766 0 17.9229 0V0Z" fill="white"/>
<path d="M17.9229 16.7399C20.7107 16.7399 22.9707 14.4834 22.9707 11.6999C22.9707 8.9164 20.7107 6.65991 17.9229 6.65991C15.135 6.65991 12.875 8.9164 12.875 11.6999C12.875 14.4834 15.135 16.7399 17.9229 16.7399Z" fill="white"/>
</svg>
